<svg xmlns="http://www.w3.org/2000/svg" version="1.1" xmlns:xlink="http://www.w3.org/1999/xlink" xmlns:svgjs="http://svgjs.dev/svgjs" viewBox="0 0 800 800" opacity="0.75"><defs><linearGradient x1="50%" y1="0%" x2="50%" y2="100%" id="ccchaos-grad"><stop stop-color="hsl(206, 94%, 28%)" stop-opacity="1" offset="0%"></stop><stop stop-color="hsl(178, 90%, 56%)" stop-opacity="1" offset="100%"></stop></linearGradient></defs><g stroke-width="2" stroke="url(#ccchaos-grad)" fill="none" stroke-linecap="round"><path d="M384.39 102.69C393.89 104.75 403.46 107.68 413.08 111.34 422.72 115.19 432.44 119.54 442.23 124.25 452.08 128.82 462.03 133.56 472.09 138.37 482.24 142.78 492.53 147.17 502.94 151.48 513.47 155.3 524.13 159.06 534.9 162.75 545.76 166 556.69 169.28 567.62 172.63 578.54 175.67 589.37 178.9 599.98 182.37 610.4 185.71 620.43 189.41 629.91 193.5 638.94 197.6 647.22 202.17 654.56 207.21 661.18 212.37 666.68 218.04 670.93 224.19 674.31 230.5 676.36 237.3 677.06 244.53 676.98 251.91 675.68 259.7 673.27 267.84 670.49 276.11 666.96 284.68 662.93 293.5 659.19 302.41 655.46 311.52 651.99 320.78 649.55 330.08 647.84 339.5 647.04 348.99 647.74 358.49 649.53 368.03 652.39 377.57 656.66 387.11 661.62 396.42 666.99 405.48 673.04 414.54 678.9 423.37 684.28 431.97 689.46 440.61 693.61 449.05 696.52 457.33 698.58 465.69 699.1 473.95 698.05 482.14 695.88 490.51 692.13 498.9 686.93 507.34 680.73 516.06 673.28 524.93 664.8 533.98 655.67 543.38 645.81 553.02 635.42 562.92 624.79 573.15 613.89 583.62 602.89 594.26 591.97 605.11 581.11 616.01 570.4 626.81 559.95 637.54 549.7 647.92 539.68 657.76 529.97 667.1 520.45 675.58 511.12 682.98 502.05 689.46 493.09 694.57 484.22 698.17 475.53 700.61 466.85 701.44 458.14 700.64 449.54 698.82 440.84 695.59 432.05 691.09 423.29 686.14 414.39 680.43 405.35 674.25 396.31 668.48 387.11 662.87 377.76 657.7 368.41 653.77 359.14 650.8 349.98 648.87 340.83 648.42 331.81 648.94 322.96 650.29 314.14 652.79 305.52 655.72 297.13 658.83 288.8 662.43 280.73 665.71 272.96 668.43 265.26 670.94 257.88 672.49 250.85 672.94 243.89 672.72 237.28 671.21 231.05 668.42 224.85 664.79 219.01 659.91 213.53 653.87 208.03 647.1 202.86 639.34 197.99 630.75 193.03 621.65 188.32 611.94 183.86 601.76 179.22 591.33 174.76 580.62 170.49 569.74 165.97 558.81 161.59 547.82 157.35 536.87 152.86 525.97 148.5 515.15 144.32 504.44 139.91 493.83 135.71 483.33 131.77 472.97 127.7 462.69 123.96 452.52 120.62 442.47 117.28 432.46 114.43 422.55 112.13 412.73 109.98 402.94 108.48 393.21 107.67 383.58 107.13 373.95 107.36 364.63 108.32 355.63 109.58 346.63 111.56 337.95 114.22 329.6 117.11 321.25 120.63 313.25 124.7 305.6 128.9 297.96 133.59 290.67 138.68 283.76 143.77 276.83 149.19 270.25 154.89 264.03 160.46 257.75 166.23 251.78 172.18 246.12 177.91 240.32 183.79 234.76 189.78 229.41 195.53 223.82 201.41 218.37 207.4 213 213.17 207.32 219.1 201.65 225.18 195.98 231.09 189.93 237.2 183.83 243.53 177.7 249.74 171.2 256.21 164.69 262.94 158.22 269.6 151.51 276.56 144.93 283.81 138.6 291.02 132.24 298.54 126.29 306.36 120.87 314.17 115.69 322.27 111.23 330.67 107.6 339.06 104.46 347.74 102.29 356.7 101.15 365.64 100.61 374.87 101.12 384.38 102.69" stroke-dasharray="8 10" transform="rotate(0, 400, 400)" opacity="0.05"></path><path d="M388.48 113.36C397.71 115.4 407.03 118.26 416.43 121.83 425.86 125.59 435.38 129.85 445 134.48 454.67 138.99 464.45 143.69 474.34 148.49 484.3 152.94 494.38 157.38 504.57 161.77 514.83 165.7 525.19 169.57 535.6 173.38 546.05 176.76 556.5 180.15 566.88 183.57 577.18 186.68 587.31 189.93 597.14 193.37 606.73 196.64 615.86 200.2 624.39 204.09 632.46 207.95 639.74 212.21 646.09 216.89 651.77 221.63 656.37 226.84 659.8 232.49 662.45 238.25 663.91 244.47 664.15 251.11 663.74 257.87 662.27 265.03 659.85 272.54 657.18 280.15 653.89 288.09 650.2 296.29 646.86 304.57 643.57 313.08 640.55 321.77 638.5 330.5 637.13 339.38 636.58 348.37 637.4 357.38 639.18 366.47 641.91 375.61 645.93 384.76 650.56 393.74 655.55 402.54 661.19 411.35 666.67 419.99 671.74 428.48 676.68 437.01 680.72 445.41 683.67 453.72 685.9 462.11 686.75 470.47 686.18 478.82 684.62 487.32 681.6 495.9 677.22 504.56 671.9 513.46 665.38 522.52 657.82 531.76 649.61 541.28 640.62 551.01 631.03 560.93 621.13 571.1 610.87 581.42 600.41 591.82 589.93 602.32 579.42 612.76 568.96 623 558.67 633.07 548.51 642.71 538.52 651.73 528.77 660.21 519.19 667.8 509.78 674.31 500.59 679.94 491.53 684.26 482.58 687.14 473.8 688.99 465.06 689.36 456.34 688.25 447.73 686.25 439.08 682.99 430.4 678.6 421.76 673.86 413.03 668.45 404.23 662.62 395.44 657.2 386.54 651.92 377.56 647.03 368.57 643.27 359.71 640.36 351 638.38 342.3 637.75 333.75 637.99 325.41 638.99 317.08 641.08 308.97 643.59 301.1 646.31 293.28 649.54 285.72 652.55 278.46 655.11 271.25 657.57 264.34 659.23 257.78 659.94 251.25 660.11 245.05 659.15 239.2 657.03 233.35 654.18 227.82 650.16 222.62 645.06 217.37 639.26 212.41 632.5 207.72 624.9 202.91 616.79 198.32 608.01 193.95 598.71 189.39 589.11 184.98 579.16 180.74 568.96 176.25 558.64 171.89 548.2 167.67 537.72 163.19 527.24 158.84 516.78 154.67 506.39 150.28 496.05 146.1 485.8 142.18 475.67 138.14 465.6 134.42 455.63 131.09 445.8 127.78 436 124.94 426.31 122.64 416.74 120.5 407.18 118.98 397.73 118.15 388.41 117.58 379.08 117.76 370.08 118.66 361.42 119.85 352.75 121.75 344.42 124.32 336.43 127.13 328.43 130.54 320.76 134.51 313.45 138.61 306.12 143.2 299.13 148.19 292.48 153.2 285.8 158.54 279.43 164.16 273.38 169.68 267.24 175.41 261.37 181.32 255.75 187.04 249.98 192.9 244.39 198.88 238.97 204.63 233.31 210.5 227.74 216.49 222.24 222.25 216.42 228.15 210.61 234.19 204.78 240.05 198.61 246.08 192.4 252.31 186.18 258.4 179.64 264.72 173.12 271.28 166.67 277.75 160.03 284.48 153.57 291.49 147.38 298.44 141.21 305.68 135.47 313.21 130.26 320.71 125.33 328.5 121.09 336.59 117.67 344.65 114.73 353.01 112.72 361.66 111.7 370.3 111.25 379.24 111.8 388.47 113.36" stroke-dasharray="5 5" transform="rotate(4.04, 400, 400)" opacity="0.09"></path><path d="M393.17 124.04C402.13 126.03 411.21 128.83 420.37 132.31 429.56 135.97 438.85 140.13 448.25 144.66 457.68 149.11 467.23 153.76 476.87 158.53 486.56 162.99 496.36 167.47 506.22 171.91 516.12 175.94 526.07 179.92 536.02 183.85 545.95 187.36 555.82 190.86 565.55 194.39 575.16 197.58 584.52 200.88 593.52 204.33 602.24 207.58 610.46 211.06 618.04 214.82 625.16 218.5 631.49 222.52 636.91 226.92 643.6 233.73 650.71 249.51 651.05 258.47 650.41 264.67 648.85 271.26 646.48 278.19 643.96 285.21 640.94 292.55 637.61 300.18 634.66 307.86 631.79 315.8 629.2 323.95 627.53 332.13 626.47 340.5 626.14 349.02 627.06 357.55 628.83 366.22 631.44 374.99 635.21 383.76 639.52 392.43 644.14 400.99 649.38 409.55 654.5 418.03 659.24 426.4 663.94 434.82 667.84 443.19 670.78 451.5 673.13 459.91 674.25 468.33 674.09 476.78 673.07 485.38 670.71 494.07 667.08 502.86 662.6 511.86 656.95 521 650.3 530.31 643 539.83 634.89 549.51 626.13 559.31 617.02 569.29 607.47 579.33 597.64 589.35 587.71 599.39 577.66 609.27 567.58 618.86 557.58 628.21 547.63 637.06 537.81 645.23 528.14 652.85 518.61 659.57 509.23 665.21 500.03 670.03 490.95 673.62 481.99 675.86 473.17 677.17 464.42 677.14 455.74 675.77 447.14 673.64 438.57 670.38 430 666.13 421.48 661.61 412.92 656.49 404.35 651.02 395.78 645.94 387.17 640.98 378.53 636.35 369.88 632.77 361.4 629.93 353.1 627.9 344.81 627.11 336.71 627.1 328.82 627.78 320.94 629.48 313.3 631.58 305.91 633.91 298.55 636.77 291.45 639.48 284.65 641.85 277.87 644.21 271.39 645.9 265.23 646.79 259.07 647.27 253.23 646.74 247.7 645.19 242.15 643.02 236.89 639.78 231.92 635.52 226.87 630.65 222.07 624.83 217.52 618.19 212.83 611.05 208.33 603.22 204.02 594.83 199.51 586.11 195.14 576.98 190.91 567.53 186.44 557.93 182.09 548.13 177.87 538.22 173.41 528.26 169.08 518.27 164.91 508.3 160.56 498.34 156.4 488.44 152.49 478.63 148.49 468.85 144.81 459.16 141.5 449.6 138.23 440.06 135.41 430.63 133.13 421.34 131 412.05 129.48 402.89 128.62 393.86 128.03 384.83 128.16 376.14 129 367.79 130.13 359.43 131.94 351.4 134.4 343.72 137.11 336.01 140.41 328.63 144.26 321.59 148.25 314.51 152.72 307.74 157.59 301.29 162.5 294.78 167.75 288.56 173.27 282.61 178.73 276.55 184.4 270.71 190.25 265.09 195.94 259.3 201.78 253.66 207.74 248.14 213.49 242.38 219.36 236.69 225.33 231.04 231.1 225.1 236.99 219.15 243 213.2 248.83 206.93 254.82 200.65 260.98 194.37 266.99 187.83 273.2 181.33 279.63 174.95 285.95 168.42 292.51 162.11 299.32 156.09 306.07 150.13 313.08 144.62 320.37 139.65 327.61 134.96 335.13 130.96 342.95 127.76 350.73 125.01 358.81 123.16 367.18 122.26 375.53 121.89 384.19 122.48 393.16 124.03" stroke-dasharray="2 10" transform="rotate(8.08, 400, 400)" opacity="0.13"></path><path d="M398.22 134.71C406.91 136.67 415.72 139.39 424.62 142.76 433.54 146.33 442.57 150.38 451.69 154.8 460.83 159.16 470.08 163.75 479.4 168.47 488.75 172.93 498.16 177.42 507.61 181.91 517.06 186.02 526.52 190.1 535.91 194.13 545.25 197.77 554.47 201.39 563.48 205.03 572.33 208.33 580.88 211.71 589.02 215.2 596.86 218.47 604.17 221.93 610.82 225.61 617.03 229.17 622.47 233.03 627.03 237.2 632.57 243.6 637.96 258.26 637.83 266.56 637.03 272.27 635.44 278.34 633.17 284.76 630.84 291.24 628.12 298.04 625.15 305.14 622.59 312.28 620.14 319.69 617.95 327.33 616.62 335 615.85 342.89 615.72 350.97 616.73 359.05 618.48 367.31 620.96 375.72 624.5 384.14 628.5 392.51 632.77 400.83 637.63 409.17 642.37 417.46 646.8 425.72 651.23 434.02 654.97 442.32 657.87 450.62 660.29 459 661.62 467.43 661.81 475.92 661.25 484.53 659.48 493.25 656.53 502.08 652.81 511.06 648 520.18 642.2 529.42 635.79 538.82 628.56 548.32 620.66 557.89 612.37 567.54 603.59 577.18 594.46 586.72 585.17 596.19 575.67 605.43 566.07 614.31 556.48 622.88 546.87 630.91 537.32 638.23 527.87 644.99 518.51 650.86 509.26 655.69 500.14 659.75 491.13 662.66 482.24 664.32 473.47 665.17 464.78 664.79 456.17 663.21 447.65 660.99 439.17 657.77 430.74 653.68 422.35 649.38 413.98 644.57 405.62 639.43 397.28 634.69 388.94 630.04 380.62 625.68 372.29 622.26 364.16 619.49 356.24 617.44 348.33 616.51 340.62 616.28 333.16 616.66 325.69 617.98 318.47 619.7 311.51 621.64 304.55 624.13 297.87 626.53 291.47 628.67 285.07 630.88 278.95 632.54 273.14 633.53 264.53 634.12 248.66 630.08 241.35 625.3 236.46 621.26 231.8 616.33 227.34 610.6 222.73 604.4 218.3 597.5 214.02 590.02 209.55 582.2 205.2 573.92 200.97 565.29 196.52 556.45 192.18 547.37 187.95 538.12 183.51 528.78 179.2 519.35 175.04 509.88 170.72 500.4 166.6 490.93 162.73 481.52 158.77 472.11 155.13 462.78 151.87 453.55 148.64 444.33 145.86 435.21 143.59 426.22 141.49 417.24 139.97 408.37 139.1 399.65 138.48 390.92 138.57 382.52 139.34 374.46 140.4 366.38 142.12 358.63 144.47 351.2 147.06 343.75 150.24 336.61 153.95 329.77 157.82 322.89 162.15 316.3 166.89 309.99 171.68 303.6 176.81 297.46 182.23 291.56 187.59 285.53 193.19 279.7 198.97 274.03 204.62 268.19 210.42 262.47 216.34 256.84 222.08 250.98 227.94 245.17 233.9 239.39 239.67 233.33 245.56 227.28 251.55 221.22 257.37 214.9 263.33 208.57 269.44 202.28 275.4 195.77 281.54 189.35 287.86 183.06 294.08 176.69 300.51 170.55 307.17 164.74 313.75 159.01 320.58 153.74 327.66 149.02 334.68 144.59 341.98 140.84 349.55 137.85 357.09 135.31 364.91 133.61 373.02 132.83 381.12 132.54 389.51 133.17 398.21 134.71" stroke-dasharray="11 11" transform="rotate(12.12, 400, 400)" opacity="0.16"></path><path d="M403.36 145.38C411.78 147.3 420.3 149.94 428.91 153.2 437.53 156.66 446.25 160.59 455.04 164.89 463.85 169.16 472.73 173.66 481.66 178.32 490.59 182.75 499.56 187.25 508.51 191.76 517.44 195.93 526.32 200.09 535.09 204.21 543.77 207.97 552.28 211.71 560.53 215.45 568.6 218.88 576.32 222.35 583.59 225.91 590.57 229.23 596.99 232.71 602.76 236.36 610.43 241.74 621.05 253.73 623.81 260.45 625 267.5 622.86 283.36 619.96 292.15 617.86 298.15 615.44 304.47 612.84 311.1 610.66 317.74 608.6 324.67 606.79 331.86 605.79 339.06 605.27 346.5 605.33 354.17 606.4 361.83 608.13 369.71 610.49 377.78 613.8 385.86 617.5 393.95 621.44 402.03 625.92 410.12 630.3 418.23 634.42 426.35 638.58 434.51 642.14 442.7 644.96 450.93 647.4 459.23 648.89 467.61 649.35 476.06 649.19 484.61 647.93 493.27 645.59 502.02 642.57 510.89 638.52 519.86 633.54 528.91 627.98 538.07 621.61 547.27 614.56 556.46 607.11 565.68 599.14 574.82 590.75 583.78 582.16 592.61 573.3 601.14 564.27 609.25 555.19 617.03 546.03 624.22 536.86 630.7 527.74 636.63 518.65 641.68 509.64 645.75 500.72 649.12 491.88 651.4 483.14 652.56 474.5 652.99 465.93 652.33 457.46 650.59 449.06 648.33 440.73 645.18 432.46 641.25 424.24 637.19 416.06 632.68 407.93 627.88 399.82 623.46 391.75 619.11 383.72 615.01 375.69 611.75 367.89 609.07 360.32 607.01 352.75 605.95 345.41 605.51 338.32 605.62 331.22 606.6 324.37 607.95 317.79 609.52 311.19 611.64 304.86 613.71 298.81 615.59 289.83 618.4 273.18 621.06 265.49 620.39 257.93 618.28 243.79 609.1 237.11 602.14 232.57 596.83 228.17 590.82 223.91 584.23 219.46 577.31 215.12 569.9 210.89 562.09 206.45 554.07 202.11 545.75 197.89 537.21 193.47 528.56 189.18 519.76 185.05 510.88 180.78 501.95 176.7 492.99 172.87 484.04 168.98 475.09 165.4 466.17 162.18 457.32 159.01 448.49 156.27 439.72 154.04 431.07 151.96 422.42 150.46 413.87 149.57 405.45 148.94 397.03 148.99 388.92 149.69 381.13 150.67 373.32 152.29 365.82 154.52 358.61 157 351.38 160.04 344.43 163.6 337.76 167.32 331.04 171.5 324.57 176.09 318.35 180.74 312.04 185.74 305.95 191.02 300.05 196.28 294.03 201.78 288.17 207.46 282.44 213.05 276.54 218.79 270.73 224.66 264.99 230.38 259.04 236.21 253.12 242.15 247.23 247.91 241.09 253.79 234.96 259.76 228.85 265.58 222.5 271.52 216.18 277.59 209.92 283.51 203.49 289.6 197.18 295.85 191.03 301.99 184.84 308.32 178.92 314.85 173.33 321.3 167.87 327.97 162.86 334.88 158.4 341.73 154.23 348.83 150.73 356.18 147.96 363.5 145.62 371.09 144.08 378.95 143.41 386.8 143.2 394.93 143.86 403.35 145.38" stroke-dasharray="1 8" transform="rotate(16.16, 400, 400)" opacity="0.20"></path><path d="M408.32 156.06C416.46 157.92 424.67 160.48 432.96 163.63 441.25 166.97 449.62 170.77 458.03 174.94 466.45 179.1 474.91 183.51 483.38 188.08 491.84 192.47 500.29 196.95 508.68 201.45 517.04 205.67 525.29 209.88 533.38 214.08 541.37 217.94 549.13 221.8 556.6 225.64 563.88 229.19 570.77 232.77 577.2 236.41 583.34 239.82 588.92 243.34 593.87 247 600.39 252.35 609.08 264.01 611.15 270.44 611.89 277.11 609.54 291.99 606.87 300.22 605.01 305.82 602.91 311.73 600.68 317.94 598.87 324.15 597.18 330.65 595.73 337.42 595.01 344.2 594.73 351.23 594.95 358.51 596.08 365.79 597.78 373.31 600.01 381.05 603.1 388.8 606.52 396.6 610.14 404.44 614.26 412.28 618.29 420.19 622.09 428.13 625.97 436.11 629.33 444.15 632.05 452.25 634.48 460.41 636.06 468.66 636.75 476.98 636.91 485.38 636.09 493.87 634.29 502.44 631.89 511.09 628.55 519.8 624.32 528.55 619.57 537.35 614.03 546.14 607.81 554.87 601.19 563.55 594.03 572.09 586.42 580.4 578.58 588.53 570.41 596.31 562.02 603.63 553.54 610.6 544.91 616.97 536.22 622.62 527.52 627.75 518.82 632.04 510.14 635.4 501.52 638.13 492.94 639.87 484.44 640.57 476.01 640.67 467.65 639.77 459.38 637.92 451.17 635.65 443.02 632.59 434.96 628.86 426.94 625.04 418.98 620.82 411.09 616.35 403.22 612.24 395.41 608.19 387.67 604.33 379.94 601.25 372.44 598.64 365.2 596.58 357.94 595.43 350.93 594.8 344.18 594.66 337.41 595.33 330.88 596.32 324.62 597.54 318.34 599.29 312.31 601.03 306.55 602.64 297.98 605.16 282.01 607.86 274.58 607.55 267.24 606.05 253.38 598.68 246.78 592.85 242.27 588.35 237.9 583.19 233.65 577.44 229.21 571.39 224.87 564.83 220.64 557.85 216.22 550.66 211.89 543.12 207.68 535.33 203.29 527.41 199.03 519.29 194.94 511.04 190.72 502.73 186.7 494.34 182.92 485.92 179.11 477.48 175.59 469.03 172.43 460.62 169.33 452.21 166.66 443.84 164.46 435.55 162.43 427.27 160.94 419.07 160.05 410.96 159.4 402.86 159.4 395.04 160.04 387.5 160.94 379.95 162.46 372.68 164.57 365.67 166.91 358.64 169.8 351.85 173.2 345.32 176.77 338.72 180.78 332.35 185.2 326.19 189.7 319.94 194.54 313.87 199.67 307.96 204.8 301.93 210.17 296.02 215.73 290.23 221.23 284.27 226.89 278.38 232.69 272.55 238.36 266.52 244.15 260.52 250.04 254.55 255.79 248.37 261.64 242.21 267.59 236.08 273.39 229.76 279.31 223.49 285.34 217.31 291.24 211.01 297.28 204.84 303.46 198.88 309.54 192.91 315.79 187.22 322.21 181.89 328.55 176.7 335.1 171.97 341.85 167.79 348.54 163.89 355.46 160.64 362.61 158.09 369.73 155.94 377.1 154.57 384.72 154 392.32 153.87 400.18 154.56 408.31 156.05" stroke-dasharray="10 11" transform="rotate(20.200000000000003, 400, 400)" opacity="0.24"></path><path d="M412.86 166.73C420.68 168.55 428.57 171.01 436.5 174.04 444.43 177.26 452.4 180.93 460.39 184.96 468.38 188.99 476.37 193.28 484.34 197.75 492.28 202.08 500.17 206.51 507.96 210.99 515.7 215.22 523.29 219.47 530.67 223.72 537.95 227.67 544.96 231.62 551.64 235.56 558.14 239.22 564.23 242.91 569.85 246.64 577.61 251.93 589.7 262.8 593.84 268.53 596.75 274.29 598.69 286.91 597.86 293.85 596.32 301.04 591.44 316.85 588.67 325.48 587.21 331.32 585.87 337.45 584.75 343.85 584.31 350.25 584.24 356.91 584.6 363.83 585.77 370.75 587.42 377.93 589.54 385.36 592.41 392.78 595.56 400.29 598.87 407.87 602.64 415.45 606.34 423.12 609.83 430.85 613.42 438.6 616.57 446.44 619.16 454.35 621.54 462.3 623.18 470.34 624.03 478.45 624.45 486.6 623.99 494.84 622.66 503.12 620.81 511.44 618.1 519.79 614.57 528.13 610.55 536.47 605.79 544.76 600.37 552.92 594.57 561 588.22 568.88 581.4 576.48 574.33 583.87 566.9 590.88 559.19 597.39 551.36 603.56 543.34 609.12 535.2 613.98 527.02 618.36 518.78 621.95 510.53 624.66 502.29 626.82 494.07 628.08 485.9 628.4 477.76 628.21 469.68 627.13 461.68 625.22 453.71 622.96 445.81 620.02 438 616.49 430.22 612.92 422.51 609 414.88 604.85 407.27 601.04 399.73 597.27 392.27 593.66 384.82 590.74 377.62 588.23 370.67 586.18 363.71 584.94 357 584.15 350.54 583.79 344.06 584.17 337.83 584.84 331.84 585.72 322.95 587.82 306.3 592.03 298.52 593.56 290.88 594.59 276.47 593.49 269.66 591.14 262.82 587.63 249.61 576.82 243.18 569.66 238.75 564.42 234.42 558.68 230.2 552.51 225.79 546.13 221.48 539.38 217.29 532.34 212.95 525.17 208.74 517.76 204.69 510.18 200.54 502.53 196.59 494.75 192.89 486.9 189.16 479.01 185.73 471.08 182.64 463.15 179.62 455.2 177.01 447.27 174.87 439.38 172.88 431.49 171.42 423.65 170.52 415.87 169.87 408.1 169.83 400.57 170.39 393.29 171.21 386 172.63 378.94 174.61 372.12 176.81 365.27 179.55 358.64 182.77 352.21 186.17 345.74 190 339.44 194.23 333.32 198.55 327.12 203.21 321.06 208.17 315.14 213.14 309.1 218.36 303.16 223.79 297.3 229.16 291.3 234.71 285.36 240.41 279.46 246 273.4 251.73 267.36 257.55 261.36 263.26 255.18 269.07 249.03 274.97 242.93 280.75 236.69 286.63 230.53 292.61 224.47 298.48 218.33 304.48 212.37 310.59 206.62 316.61 200.9 322.78 195.48 329.1 190.42 335.35 185.53 341.77 181.1 348.37 177.19 354.92 173.57 361.68 170.57 368.63 168.24 375.56 166.29 382.7 165.06 390.07 164.6 397.43 164.55 405.02 165.25 412.84 166.73" stroke-dasharray="2 8" transform="rotate(24.24, 400, 400)" opacity="0.28"></path><path d="M416.71 177.4C424.21 179.16 431.75 181.53 439.28 184.44 446.83 187.53 454.38 191.05 461.91 194.93 469.43 198.83 476.92 202.98 484.34 207.34 491.73 211.58 499.03 215.94 506.19 220.37 513.28 224.6 520.19 228.86 526.87 233.13 533.43 237.14 539.7 241.16 545.62 245.18 551.37 248.95 556.71 252.74 561.58 256.56 568.26 261.99 578.45 273.02 581.81 278.75 584.14 284.46 585.44 296.77 584.59 303.45 583.22 310.33 579.09 325.36 576.82 333.53 575.7 339.06 574.68 344.86 573.87 350.93 573.66 356.99 573.78 363.32 574.26 369.91 575.46 376.49 577.07 383.34 579.06 390.46 581.73 397.57 584.61 404.78 587.63 412.07 591.07 419.37 594.44 426.77 597.63 434.23 600.94 441.72 603.86 449.3 606.3 456.94 608.59 464.62 610.24 472.37 611.21 480.17 611.82 488.01 611.66 495.89 610.73 503.78 609.36 511.69 607.2 519.58 604.29 527.42 600.96 535.23 596.92 542.93 592.26 550.46 587.24 557.88 581.66 565.06 575.62 571.92 569.32 578.55 562.64 584.77 555.66 590.5 548.52 595.88 541.16 600.68 533.63 604.8 526.03 608.48 518.33 611.42 510.57 613.55 502.81 615.21 495.01 616.05 487.24 616.06 479.48 615.63 471.75 614.43 464.07 612.49 456.42 610.28 448.82 607.48 441.3 604.16 433.81 600.84 426.38 597.2 419.03 593.37 411.7 589.85 404.44 586.36 397.28 582.99 390.11 580.23 383.19 577.81 376.52 575.79 369.84 574.48 363.41 573.56 357.21 573 348.01 573.3 330.72 575.64 322.62 577.22 314.66 579.04 299.67 581.31 292.6 581.36 285.55 580.67 272.04 576.03 265.52 572.02 261.07 568.88 256.72 565.17 252.47 560.93 248.06 556.44 243.75 551.46 239.53 546.05 235.16 540.45 230.88 534.47 226.73 528.17 222.44 521.74 218.29 515.05 214.31 508.15 210.25 501.17 206.38 494.03 202.77 486.77 199.14 479.47 195.8 472.09 192.8 464.66 189.87 457.22 187.34 449.75 185.25 442.28 183.32 434.81 181.89 427.35 181 419.92 180.33 412.49 180.26 405.26 180.76 398.24 181.5 391.21 182.8 384.38 184.65 377.74 186.71 371.07 189.28 364.59 192.32 358.27 195.53 351.91 199.17 345.69 203.19 339.62 207.32 333.47 211.78 327.43 216.54 321.5 221.33 315.47 226.38 309.52 231.63 303.63 236.86 297.62 242.27 291.65 247.83 285.73 253.33 279.67 258.95 273.64 264.68 267.65 270.31 261.53 276.05 255.45 281.88 249.44 287.61 243.33 293.44 237.31 299.36 231.42 305.18 225.51 311.11 219.77 317.15 214.27 323.1 208.84 329.18 203.71 335.4 198.95 341.54 194.37 347.84 190.23 354.3 186.62 360.7 183.28 367.29 180.53 374.04 178.41 380.77 176.66 387.69 175.58 394.8 175.22 401.9 175.23 409.2 175.96 416.7 177.4" stroke-dasharray="3 10" transform="rotate(28.28, 400, 400)" opacity="0.32"></path><path d="M419.7 188.07C426.85 189.78 434 192.05 441.13 194.83 448.26 197.78 455.36 201.15 462.4 204.86 469.43 208.61 476.39 212.62 483.25 216.84 490.07 220.97 496.76 225.24 503.28 229.6 509.73 233.79 515.97 238.03 521.94 242.3 527.81 246.34 533.37 250.41 538.58 254.49 545.94 260.27 558.18 271.67 562.89 277.37 566.72 282.9 571.32 294.36 572.12 300.4 572.22 306.49 570.27 319.64 568.55 326.74 566.92 334.04 563.96 349.87 563.07 358.4 563.07 364.17 563.35 370.19 563.94 376.47 565.16 382.75 566.71 389.28 568.58 396.08 571.05 402.87 573.69 409.77 576.43 416.76 579.55 423.75 582.61 430.84 585.5 438 588.52 445.18 591.21 452.43 593.49 459.75 595.67 467.08 597.29 474.47 598.32 481.89 599.08 489.32 599.15 496.77 598.54 504.19 597.57 511.61 595.9 518.97 593.54 526.24 590.82 533.45 587.44 540.51 583.47 547.36 579.18 554.08 574.35 560.53 569.06 566.63 563.52 572.51 557.59 577.97 551.33 582.93 544.91 587.57 538.23 591.64 531.35 595.07 524.39 598.12 517.28 600.48 510.08 602.11 502.84 603.33 495.54 603.82 488.22 603.57 480.91 602.96 473.59 601.68 466.3 599.75 459.02 597.62 451.78 594.97 444.6 591.87 437.43 588.8 430.32 585.45 423.28 581.92 416.25 578.68 409.3 575.45 402.42 572.31 395.55 569.72 388.91 567.4 382.51 565.41 376.1 564.05 369.92 563.02 363.97 562.29 355.12 562.21 338.45 563.65 330.61 564.78 322.89 566.21 308.26 568.08 301.3 568.16 294.36 567.68 280.97 563.97 274.48 560.65 267.88 556.5 254.96 545.36 248.63 538.5 244.3 533.63 240.07 528.37 235.98 522.79 231.76 517.08 227.69 511.09 223.8 504.86 219.83 498.55 216.07 492.05 212.56 485.39 209.04 478.7 205.81 471.88 202.91 464.97 200.09 458.05 197.64 451.06 195.62 444.04 193.75 437.01 192.36 429.95 191.47 422.88 190.8 415.81 190.69 408.89 191.12 402.14 191.78 395.39 192.98 388.78 194.68 382.33 196.6 375.86 199 369.53 201.85 363.33 204.87 357.09 208.29 350.97 212.1 344.95 216.01 338.88 220.25 332.89 224.79 326.98 229.38 320.99 234.22 315.05 239.27 309.17 244.33 303.19 249.57 297.25 254.96 291.36 260.31 285.35 265.8 279.39 271.4 273.47 276.93 267.45 282.56 261.5 288.29 255.63 293.94 249.7 299.68 243.88 305.5 238.21 311.25 232.55 317.1 227.09 323.04 221.87 328.91 216.74 334.89 211.93 340.98 207.49 347.01 203.23 353.18 199.4 359.47 196.08 365.72 193.02 372.12 190.52 378.67 188.62 385.19 187.05 391.87 186.12 398.71 185.85 405.53 185.93 412.53 186.67 419.69 188.07" stroke-dasharray="9 5" transform="rotate(32.32, 400, 400)" opacity="0.35"></path><path d="M421.65 198.75C428.44 200.38 435.19 202.56 441.88 205.2 448.57 208.01 455.2 211.22 461.74 214.76 468.26 218.35 474.68 222.2 480.96 226.26 487.21 230.26 493.3 234.42 499.18 238.67 505 242.8 510.59 246.99 515.9 251.22 521.11 255.28 526.01 259.36 530.55 263.46 536.96 269.33 547.44 280.94 551.4 286.73 554.61 292.35 558.38 303.9 559 309.9 559.07 315.93 557.51 328.78 556.14 335.66 554.93 342.7 552.86 357.86 552.35 366.01 552.55 371.51 552.97 377.25 553.64 383.23 554.86 389.21 556.36 395.44 558.11 401.91 560.38 408.38 562.79 414.96 565.26 421.61 568.08 428.27 570.83 435.02 573.44 441.83 576.18 448.64 578.64 455.53 580.73 462.45 582.77 469.38 584.34 476.34 585.39 483.31 586.23 490.27 586.49 497.22 586.14 504.11 585.5 510.97 584.23 517.75 582.35 524.39 580.16 530.96 577.37 537.35 574.03 543.5 570.41 549.51 566.29 555.22 561.7 560.58 556.89 565.72 551.69 570.43 546.14 574.67 540.44 578.61 534.46 582.02 528.25 584.83 521.94 587.3 515.46 589.15 508.85 590.35 502.19 591.2 495.43 591.4 488.63 590.95 481.8 590.22 474.95 588.89 468.1 587.01 461.25 584.98 454.4 582.5 447.6 579.62 440.8 576.8 434.04 573.73 427.34 570.49 420.65 567.53 414.01 564.55 407.44 561.64 400.87 559.2 394.52 556.99 388.39 555.05 379.28 553.09 362.07 551.25 353.95 551.18 345.97 551.84 330.84 553.58 323.65 554.3 316.52 554.94 302.82 554.59 296.21 553.38 289.55 551.55 276.55 545.32 270.19 540.93 265.86 537.69 261.61 534.02 257.47 529.94 253.21 525.72 249.06 521.13 245.03 516.21 240.91 511.18 236.94 505.85 233.15 500.27 229.3 494.62 225.67 488.74 222.27 482.69 218.88 476.59 215.77 470.34 212.98 463.96 210.27 457.57 207.92 451.07 205.97 444.5 204.17 437.93 202.82 431.28 201.95 424.59 201.28 417.9 201.13 411.31 201.5 404.85 202.08 398.38 203.16 392.02 204.73 385.78 206.49 379.52 208.71 373.36 211.36 367.3 214.18 361.21 217.39 355.2 220.96 349.28 224.64 343.31 228.65 337.4 232.94 331.55 237.3 325.63 241.91 319.77 246.74 313.95 251.59 308.05 256.62 302.19 261.81 296.38 266.99 290.48 272.3 284.63 277.73 278.85 283.12 273 288.61 267.22 294.2 261.55 299.73 255.85 305.35 250.28 311.05 244.88 316.69 239.5 322.42 234.34 328.23 229.45 333.98 224.65 339.84 220.17 345.78 216.05 351.68 212.12 357.68 208.61 363.79 205.58 369.87 202.8 376.07 200.55 382.38 198.86 388.68 197.47 395.1 196.67 401.65 196.5 408.18 196.63 414.85 197.38 421.64 198.75" stroke-dasharray="3 7" transform="rotate(36.36, 400, 400)" opacity="0.39"></path><path d="M422.47 209.42C428.87 210.99 435.2 213.05 441.45 215.56 447.69 218.22 453.83 221.26 459.86 224.62 471.87 231.48 483.3 239.26 493.92 247.6 504.29 255.52 513.62 263.74 521.64 272.1 529.18 279.77 535.2 287.61 539.52 295.6 543.31 303 545.43 310.76 545.94 318.92 546.32 326.72 545.55 335.15 543.96 344.24 543.15 353.16 542.28 362.89 541.72 373.45 542.34 381.45 545.28 398.53 547.63 407.64 549.72 413.78 551.9 420.01 554.12 426.31 556.66 432.61 559.12 438.98 561.45 445.4 566.48 458.24 570.27 471.25 572.45 484.18 574.03 497.04 573.48 509.67 570.77 521.74 567.04 533.44 561.21 544.24 553.56 553.72 545.11 562.37 535.2 569.29 524.22 574.11 512.85 577.77 500.74 579.17 488.25 578.24 475.65 576.43 462.84 572.72 450.06 567.42 443.67 564.84 437.29 562.05 430.95 559.09 424.62 556.39 418.32 553.66 412.07 550.97 405.82 548.69 399.76 546.59 393.89 544.7 388.02 543.29 382.34 542.09 376.84 541.1 365.78 540.51 355.39 540.43 345.68 540.53 335.77 541.66 326.41 542.23 317.58 541.87 308.43 541.59 299.67 539.85 291.31 536.56 282.54 532.82 274.09 527.41 266.04 520.47 257.62 513.07 249.67 504.3 242.37 494.42 234.95 484.28 228.4 473.25 223 461.57 220.41 455.71 218.17 449.71 216.31 443.6 214.58 437.48 213.28 431.26 212.42 424.96 211.76 418.66 211.58 412.42 211.89 406.26 212.39 400.1 213.36 394.01 214.78 387.99 218.18 375.93 223.27 364.11 229.78 352.57 236.77 340.87 244.95 329.32 254.05 317.98 263.28 306.41 273.24 294.98 283.7 283.84 294.07 272.56 304.87 261.67 315.98 251.45 326.91 241.42 338.19 232.37 349.75 224.66 361.17 217.66 372.98 212.37 385.1 209.13 391.14 207.91 397.29 207.25 403.52 207.16 409.74 207.34 416.06 208.09 422.46 209.42" stroke-dasharray="6 2" transform="rotate(40.400000000000006, 400, 400)" opacity="0.43"></path><path d="M422.12 220.09C434.11 223.28 445.71 228.2 456.76 234.46 467.75 240.96 478.08 248.38 487.55 256.39 496.8 264.09 505 272.15 511.95 280.39 518.52 288.07 523.69 295.93 527.35 303.94 530.64 311.43 532.5 319.22 533 327.35 533.51 335.13 533.09 343.43 531.99 352.3 531.67 360.98 531.3 370.37 531.16 380.47 532.54 390.5 534.54 401.34 537.16 412.95 541.34 424.56 545.58 436.44 549.53 448.41 554.03 460.39 557.46 472.42 559.51 484.27 561.15 496.01 560.94 507.41 558.85 518.16 555.95 528.52 551.14 537.94 544.67 546.04 537.49 553.4 528.9 559.12 519.22 562.93 509.15 565.78 498.29 566.64 486.93 565.44 475.44 563.61 463.64 560.12 451.74 555.27 439.83 550.71 427.89 545.58 416.07 540.29 404.24 536.45 393.04 533.19 382.51 530.62 371.91 529.67 361.88 529.12 352.44 528.74 342.82 529.34 333.66 529.5 324.97 528.93 316 528.56 307.37 526.98 299.12 524.07 290.51 520.9 282.23 516.25 274.35 510.22 266.19 503.84 258.49 496.16 251.46 487.39 244.36 478.4 238.12 468.47 232.99 457.82 228.17 447.1 224.72 435.77 222.9 423.97 221.76 412.17 222.46 400.47 224.85 388.98 227.93 377.45 232.58 366.06 238.6 354.87 245.08 343.56 252.7 332.36 261.24 321.35 269.95 310.18 279.39 299.19 289.35 288.52 299.28 277.81 309.65 267.54 320.33 257.98 330.89 248.67 341.77 240.35 352.89 233.33 363.91 226.99 375.24 222.26 386.79 219.43 398.31 217.59 410.12 217.77 422.11 220.09" stroke-dasharray="7 6" transform="rotate(44.44, 400, 400)" opacity="0.47"></path><path d="M420.61 230.77C431.76 233.79 442.43 238.39 452.49 244.26 462.49 250.38 471.78 257.41 480.18 265.05 488.41 272.47 495.62 280.29 501.65 288.34 507.39 295.95 511.88 303.76 515.04 311.71 517.97 319.23 519.68 327.01 520.25 335.07 520.95 342.82 520.88 350.99 520.26 359.62 520.38 368.09 520.45 377.14 520.68 386.79 522.22 396.38 524.23 406.64 526.68 417.55 530.47 428.46 534.23 439.53 537.69 450.61 541.68 461.66 544.74 472.66 546.61 483.39 548.23 493.98 548.26 504.13 546.66 513.57 544.43 522.64 540.51 530.74 535.07 537.56 529.04 543.74 521.67 548.41 513.22 551.35 504.42 553.53 494.78 553.95 484.56 552.61 474.2 550.8 463.43 547.58 452.46 543.17 441.47 539.08 430.34 534.45 419.22 529.62 408.1 526.03 397.49 522.86 387.43 520.21 377.31 518.95 367.66 518 358.5 517.19 349.19 517.3 340.28 517.05 331.76 516.22 323.01 515.67 314.56 514.13 306.47 511.49 298.1 508.71 290.04 504.66 282.39 499.37 274.54 493.84 267.15 487.11 260.43 479.33 253.69 471.37 247.78 462.47 242.93 452.8 238.39 443.06 235.12 432.65 233.38 421.67 232.24 410.69 232.8 399.69 234.93 388.79 237.69 377.86 241.92 366.98 247.41 356.24 253.36 345.42 260.41 334.68 268.33 324.13 276.47 313.49 285.32 303.05 294.71 292.97 304.12 282.92 313.98 273.35 324.13 264.51 334.23 255.97 344.63 248.39 355.22 242.07 365.76 236.39 376.54 232.21 387.46 229.78 398.36 228.23 409.45 228.52 420.61 230.77" stroke-dasharray="3 10" transform="rotate(48.48, 400, 400)" opacity="0.51"></path><path d="M418.02 241.44C428.31 244.28 438.07 248.58 447.17 254.05 456.22 259.77 464.53 266.37 471.98 273.58 479.28 280.67 485.62 288.19 490.88 295.97 495.93 303.42 499.88 311.09 502.69 318.92 505.37 326.39 507.03 334.09 507.74 342.02 508.65 349.69 508.93 357.71 508.76 366.09 509.27 374.32 509.73 383.03 510.28 392.21 511.94 401.34 513.93 411.01 516.21 421.2 519.61 431.38 522.93 441.61 525.92 451.75 529.42 461.85 532.1 471.8 533.77 481.37 535.3 490.82 535.48 499.75 534.25 507.92 532.56 515.76 529.38 522.64 524.84 528.31 519.82 533.45 513.55 537.21 506.25 539.42 498.63 541.05 490.16 541.16 481.06 539.75 471.82 538.02 462.1 535.08 452.08 531.12 442.03 527.48 431.75 523.34 421.37 518.95 411 515.61 401 512.55 391.44 509.86 381.84 508.36 372.6 507.08 363.77 505.89 354.83 505.53 346.19 504.89 337.91 503.78 329.44 503 321.24 501.42 313.37 498.92 305.3 496.4 297.53 492.79 290.18 488.1 282.68 483.25 275.66 477.33 269.28 470.41 262.94 463.36 257.39 455.4 252.84 446.65 248.59 437.85 245.52 428.33 243.85 418.19 242.73 408.05 243.17 397.79 245.04 387.54 247.47 377.28 251.27 367 256.25 356.81 261.65 346.59 268.09 336.43 275.37 326.45 282.88 316.45 291.1 306.67 299.84 297.27 308.66 287.96 317.92 279.16 327.47 271.09 337.01 263.35 346.84 256.53 356.82 250.9 366.79 245.87 376.94 242.22 387.17 240.17 397.4 238.89 407.72 239.28 418.02 241.44" stroke-dasharray="7 6" transform="rotate(52.52, 400, 400)" opacity="0.54"></path><path d="M414.49 252.11C423.92 254.77 432.77 258.75 440.96 263.8 449.11 269.11 456.53 275.25 463.12 282.01 469.61 288.7 475.21 295.85 479.84 303.28 484.34 310.48 487.87 317.92 490.43 325.53 492.96 332.86 494.64 340.41 495.53 348.15 496.66 355.67 497.28 363.48 497.51 371.56 498.36 379.52 499.14 387.85 499.95 396.54 501.69 405.19 503.63 414.25 505.73 423.69 508.78 433.13 511.67 442.5 514.24 451.67 517.26 460.82 519.57 469.7 521.01 478.15 522.41 486.48 522.65 494.23 521.7 501.22 519.13 510.81 507.26 524.07 498.36 527.21 491.83 528.41 484.46 528.29 476.43 526.89 468.27 525.29 459.58 522.65 450.51 519.13 441.42 515.92 432.01 512.24 422.41 508.27 412.81 505.19 403.46 502.27 394.45 499.59 385.4 497.9 376.64 496.34 368.19 494.83 359.65 494.06 351.37 493.06 343.39 491.67 335.26 490.64 327.39 488.96 319.82 486.52 312.11 484.13 304.7 480.83 297.71 476.61 290.62 472.3 284.01 467.04 278.03 460.87 272.12 454.61 266.95 447.5 262.72 439.61 258.77 431.67 255.91 423.02 254.33 413.72 253.23 404.42 253.55 394.93 255.17 385.4 257.29 375.87 260.66 366.28 265.11 356.75 269.96 347.21 275.78 337.73 282.39 328.44 289.24 319.18 296.77 310.15 304.81 301.51 312.96 293.02 321.55 285.04 330.42 277.77 339.32 270.84 348.49 264.79 357.79 259.85 367.1 255.44 376.56 252.3 386.04 250.61 395.53 249.58 405.06 250.05 414.49 252.11" stroke-dasharray="11 5" transform="rotate(56.56, 400, 400)" opacity="0.58"></path><path d="M410.2 262.79C418.75 265.25 426.74 268.9 434.08 273.54 441.38 278.41 447.99 284.07 453.83 290.33 459.6 296.58 464.57 303.29 468.69 310.31 472.75 317.16 475.98 324.29 478.39 331.59 480.82 338.68 482.56 345.98 483.66 353.44 485 360.73 485.92 368.25 486.51 375.98 487.64 383.61 488.67 391.52 489.68 399.67 491.45 407.8 493.33 416.22 495.26 424.88 497.96 433.55 500.46 442.05 502.63 450.27 505.2 458.46 507.15 466.31 508.35 473.68 509.69 484.27 507.01 501.58 502.82 507.76 497.18 512.38 480.89 515.51 470.69 514.05 463.56 512.61 455.87 510.29 447.75 507.2 439.59 504.4 431.07 501.16 422.27 497.6 413.47 494.78 404.83 492.01 396.41 489.37 387.97 487.55 379.72 485.79 371.72 484.03 363.67 482.91 355.81 481.58 348.2 479.94 340.5 478.65 333.02 476.82 325.84 474.39 318.56 472.06 311.58 468.97 305.01 465.1 298.39 461.2 292.24 456.48 286.69 450.95 281.22 445.37 276.46 439 272.57 431.91 268.94 424.78 266.29 416.96 264.8 408.5 263.74 400.04 263.95 391.36 265.33 382.6 267.15 373.86 270.1 365.03 274.03 356.25 278.32 347.48 283.51 338.78 289.43 330.26 295.59 321.81 302.4 313.61 309.7 305.81 317.12 298.17 324.97 291.04 333.1 284.6 341.28 278.48 349.72 273.19 358.27 268.91 366.85 265.12 375.55 262.46 384.24 261.09 392.95 260.3 401.64 260.83 410.2 262.79" stroke-dasharray="8 5" transform="rotate(60.599999999999994, 400, 400)" opacity="0.62"></path><path d="M405.38 273.46C413.07 275.73 420.21 279.05 426.75 283.26 433.27 287.68 439.14 292.85 444.33 298.57 449.48 304.33 453.93 310.54 457.64 317.07 461.34 323.51 464.34 330.22 466.66 337.11 469.05 343.87 470.87 350.82 472.16 357.9 473.69 364.87 474.87 372.02 475.75 379.32 477.1 386.54 478.33 393.97 479.47 401.55 481.25 409.11 483.03 416.86 484.78 424.73 487.16 432.61 489.3 440.24 491.1 447.52 493.26 454.78 494.86 461.64 495.81 467.99 496.94 477.08 494.73 491.59 491.24 496.62 486.56 500.35 472.75 502.63 463.95 501.26 457.77 500.01 451.03 498 443.82 495.33 436.59 492.92 428.94 490.09 420.97 486.93 412.99 484.37 405.08 481.77 397.3 479.21 389.52 477.32 381.86 475.42 374.39 473.48 366.88 472.07 359.52 470.48 352.38 468.62 345.18 467.09 338.18 465.12 331.46 462.65 324.68 460.33 318.19 457.37 312.1 453.77 306.01 450.19 300.35 445.91 295.26 440.93 290.27 435.92 285.94 430.22 282.39 423.85 279.08 417.47 276.67 410.44 275.28 402.81 274.26 395.19 274.37 387.34 275.52 379.4 277.05 371.48 279.59 363.48 283.02 355.52 286.75 347.59 291.31 339.73 296.54 332.07 302 324.49 308.06 317.17 314.58 310.25 321.23 303.49 328.29 297.23 335.62 291.63 343.03 286.31 350.66 281.75 358.41 278.12 366.2 274.9 374.09 272.69 381.95 271.63 389.84 271.04 397.68 271.63 405.38 273.46" stroke-dasharray="6 1" transform="rotate(64.64, 400, 400)" opacity="0.66"></path><path d="M400.27 284.13C407.11 286.2 413.45 289.19 419.25 292.96 425.03 296.93 430.24 301.57 434.86 306.74 439.46 311.97 443.46 317.63 446.85 323.61 450.25 329.55 453.08 335.76 455.35 342.16 457.71 348.48 459.6 354.98 461.06 361.6 462.74 368.14 464.12 374.83 465.23 381.61 466.73 388.35 468.09 395.22 469.33 402.17 471.06 409.11 472.74 416.15 474.31 423.23 476.38 430.3 478.18 437.06 479.65 443.44 482.05 452.77 484.28 468.88 483.74 475.37 478.94 484.5 463.85 489.75 456.31 488.54 451 487.49 445.15 485.79 438.83 483.51 432.48 481.48 425.71 479.03 418.57 476.25 411.43 473.95 404.28 471.55 397.21 469.11 390.13 467.21 383.12 465.22 376.24 463.17 369.34 461.56 362.56 459.76 355.97 457.73 349.34 456 342.9 453.9 336.71 451.41 330.51 449.06 324.58 446.21 319.02 442.82 313.48 439.48 308.36 435.56 303.76 431.05 299.28 426.54 295.38 421.43 292.19 415.74 289.22 410.05 287.03 403.78 285.75 396.98 284.78 390.17 284.81 383.17 285.75 376.09 287.01 369.02 289.16 361.88 292.09 354.8 295.29 347.76 299.22 340.8 303.77 334.04 308.51 327.37 313.81 320.96 319.54 314.94 325.4 309.08 331.63 303.68 338.13 298.89 344.71 294.35 351.5 290.51 358.41 287.48 365.36 284.8 372.4 283.01 379.41 282.22 386.44 281.81 393.43 282.43 400.27 284.13" stroke-dasharray="0 8" transform="rotate(68.68, 400, 400)" opacity="0.70"></path><path d="M395.15 294.81C407.16 298.77 417.42 305.78 425.65 314.86 433.86 324.22 440.16 335.13 444.53 346.8 449.29 358.3 452.7 370.52 454.96 382.93 458.44 395.24 461.46 407.92 463.83 420.45 467.75 432.97 470.3 444.09 471.17 453.3 471.82 465.67 460.15 477.23 447.95 475.91 438.86 474.31 427.79 470.74 415.2 465.58 402.6 461.91 389.79 457.65 377.37 453.11 364.93 449.97 352.82 445.91 341.66 440.75 330.54 436.15 320.46 429.78 312.22 421.6 304.39 413.46 298.78 403.29 296.23 391.3 294.68 379.31 296.56 366.71 301.26 354.32 306.84 342.1 314.91 330.34 324.66 319.96 334.87 310.15 346.4 302.2 358.44 297.01 370.64 292.92 383.14 291.99 395.15 294.81" stroke-dasharray="9 9" transform="rotate(72.72, 400, 400)" opacity="0.73"></path><path d="M390.29 305.48C400.67 308.95 409.62 315.05 416.91 322.95 424.22 331.13 430.02 340.76 434.28 351.1 438.89 361.39 442.41 372.35 444.91 383.41 448.35 394.43 451.24 405.66 453.36 416.56 456.63 427.45 458.6 436.93 459.09 444.62 459.36 454.94 449.37 464.43 439.06 463.39 431.4 462.19 421.94 459.29 411.03 454.91 400.12 451.65 388.88 447.67 377.9 443.29 366.94 439.96 356.24 435.79 346.38 430.73 336.62 426.15 327.81 420.17 320.63 412.78 313.84 405.46 308.96 396.51 306.7 386.1 305.24 375.69 306.69 364.87 310.56 354.32 315.11 343.92 321.82 334.03 330.02 325.42 338.62 317.29 348.42 310.81 358.71 306.71 369.15 303.47 379.9 302.9 390.29 305.48" stroke-dasharray="7 11" transform="rotate(76.76, 400, 400)" opacity="0.77"></path><path d="M385.93 316.15C394.74 319.14 402.43 324.31 408.84 331.02 415.28 337.99 420.56 346.24 424.63 355.15 429.01 364.09 432.5 373.62 435.08 383.21 438.35 392.8 441.03 402.49 442.88 411.76 445.57 421.04 447.02 428.97 447.2 435.31 447.11 443.84 438.49 451.71 429.85 451.01 423.48 450.16 415.54 447.87 406.29 444.23 397.04 441.41 387.42 437.79 377.99 433.69 368.59 430.36 359.4 426.25 350.95 421.41 342.61 416.96 335.11 411.42 329.03 404.82 323.27 398.3 319.13 390.52 317.18 381.66 315.83 372.8 316.9 363.72 319.98 354.98 323.58 346.37 329 338.3 335.71 331.38 342.73 324.83 350.82 319.71 359.4 316.6 368.1 314.11 377.12 313.84 385.93 316.15" stroke-dasharray="5 2" transform="rotate(80.80000000000001, 400, 400)" opacity="0.81"></path><path d="M382.31 326.83C389.58 329.32 396.06 333.57 401.57 339.09 407.13 344.83 411.84 351.66 415.63 359.06 419.64 366.53 422.95 374.51 425.46 382.54 428.45 390.58 430.84 398.66 432.41 406.33 435.08 424.9 427.67 439.13 420.56 438.76 415.34 438.24 408.83 436.5 401.22 433.56 393.6 431.18 385.65 428.01 377.82 424.31 370.04 421.14 362.43 417.27 355.44 412.81 348.56 408.63 342.4 403.62 337.42 397.86 332.7 392.16 329.29 385.56 327.65 378.22 326.45 370.87 327.19 363.49 329.55 356.51 332.28 349.61 336.5 343.25 341.8 337.9 347.32 332.82 353.77 328.94 360.69 326.68 367.69 324.86 375.04 324.81 382.31 326.83" stroke-dasharray="5 0" transform="rotate(84.84, 400, 400)" opacity="0.85"></path><path d="M379.61 337.5C391.17 341.76 400.72 351.29 407.28 362.93 414.47 374.85 419.76 388.38 421.93 400.55 425.25 416.86 412.38 427.99 396.08 422.89 384.04 419.43 371.02 412.96 359.95 404.94 349.25 397.67 341.02 387.68 338.13 375.97 336.37 364.25 340.52 353.08 348.35 345.05 356.76 337.7 368.05 334.47 379.61 337.5" stroke-dasharray="5 7" transform="rotate(88.88, 400, 400)" opacity="0.89"></path><path d="M377.98 348.17C386.61 351.32 394.12 358.3 399.57 366.87 405.39 375.65 409.73 385.69 411.46 394.73 413.6 406.89 403.29 415.73 391.15 412.21 382.23 409.52 372.65 404.27 364.57 397.78 356.74 391.72 350.74 383.79 348.6 375.02 347.13 366.25 349.91 358.29 355.41 352.84 361.25 347.77 369.35 345.73 377.98 348.17" stroke-dasharray="5 7" transform="rotate(92.92, 400, 400)" opacity="0.92"></path><path d="M377.5 358.85C389 363.26 398.91 377.25 400.98 389.21 404.39 401.16 398.45 406.25 386.68 401.54 374.91 398.19 362.15 387.14 359.08 375.44 357.22 363.73 365.99 355.71 377.5 358.85" stroke-dasharray="9 6" transform="rotate(96.96, 400, 400)" opacity="0.96"></path></g></svg>