<svg xmlns="http://www.w3.org/2000/svg" version="1.1" xmlns:xlink="http://www.w3.org/1999/xlink" xmlns:svgjs="http://svgjs.dev/svgjs" viewBox="0 0 600 600"><path d="M448.6526794433594,216.46707153320312C461.8263346354167,199.10179901123047,490.5688756306966,178.89221064249674,451.3473205566406,157.1856231689453C412.12576548258465,135.4790356953939,255.0898183186849,58.98203531901042,213.32334899902344,86.22754669189453C171.55687967936197,113.47305806477864,213.6227544148763,260.4790509541829,200.74850463867188,320.65869140625C187.87425486246744,380.8383318583171,113.92215983072917,416.16766866048175,136.07785034179688,447.3053894042969C158.2335408528646,478.443110148112,276.19761657714844,517.3652547200521,333.6826477050781,507.4850158691406C391.1676788330078,497.6047770182292,474.55091349283856,429.0419158935547,480.988037109375,388.0239562988281C487.42516072591144,347.00599670410156,377.6946156819661,289.97007242838544,372.3053894042969,261.37725830078125C366.9161631266276,232.7844441731771,435.47902425130206,233.83234405517578,448.6526794433594,216.46707153320312C461.8263346354167,199.10179901123047,490.5688756306966,178.89221064249674,451.3473205566406,157.1856231689453" fill="url(&quot;#SvgjsLinearGradient1000&quot;)" transform="matrix(1,0,0,1,-6.6122894287109375,5.2582244873046875)" stroke-width="0" stroke="hsl(340, 45%, 30%)"></path><defs><linearGradient id="SvgjsLinearGradient1000"><stop stop-color="hsl(180, 69%, 40%)" offset="0"></stop><stop stop-color="hsl(180, 69%, 60%)" offset="1"></stop></linearGradient><radialGradient id="SvgjsRadialGradient1001"><stop stop-color="hsl(340, 45%, 50%)" offset="0"></stop><stop stop-color="hsl(340, 45%, 80%)" offset="1"></stop></radialGradient></defs></svg>